<?xml version="1.0" encoding="UTF-8" standalone="no"?>
<!-- Created with Inkscape (http://www.inkscape.org/) -->

<svg
   xmlns:dc="http://purl.org/dc/elements/1.1/"
   xmlns:cc="http://creativecommons.org/ns#"
   xmlns:rdf="http://www.w3.org/1999/02/22-rdf-syntax-ns#"
   xmlns:svg="http://www.w3.org/2000/svg"
   xmlns="http://www.w3.org/2000/svg"
   xmlns:sodipodi="http://sodipodi.sourceforge.net/DTD/sodipodi-0.dtd"
   xmlns:inkscape="http://www.inkscape.org/namespaces/inkscape"
   width="744.09448819"
   height="1052.3622047"
   id="svg3007"
   version="1.1"
   inkscape:version="0.48.5 r10040"
   sodipodi:docname="DEast.svg">
  <defs
     id="defs3009" />
  <sodipodi:namedview
     id="base"
     pagecolor="#ffffff"
     bordercolor="#666666"
     borderopacity="1.0"
     inkscape:pageopacity="0.0"
     inkscape:pageshadow="2"
     inkscape:zoom="0.70710678"
     inkscape:cx="305.8173"
     inkscape:cy="621.82973"
     inkscape:document-units="px"
     inkscape:current-layer="layer8"
     showgrid="false"
     inkscape:window-width="1366"
     inkscape:window-height="705"
     inkscape:window-x="-8"
     inkscape:window-y="-8"
     inkscape:window-maximized="1" />
  <metadata
     id="metadata3012">
    <rdf:RDF>
      <cc:Work
         rdf:about="">
        <dc:format>image/svg+xml</dc:format>
        <dc:type
           rdf:resource="http://purl.org/dc/dcmitype/StillImage" />
        <dc:title></dc:title>
      </cc:Work>
    </rdf:RDF>
  </metadata>
  <g
     id="dp_group001-7"
     transform="translate(-179.032,129.36605)">
    <path
       style="fill:#008ed2;fill-rule:evenodd;stroke:#ffffff;stroke-width:1.33333004"
       inkscape:connector-curvature="0"
       id="dp_path002-6"
       d="M 536.427,687.189 C 480.611,426.512 413.632,397.548 383.863,293.277 302,49.9787 808.064,49.9787 726.201,293.277 696.432,397.548 629.453,426.512 536.427,687.189 z" />
    <path
       style="fill:#ffffff;fill-rule:evenodd;stroke:#000000;stroke-width:1.33333004"
       inkscape:connector-curvature="0"
       id="dp_path003-1"
       d="m 556.031,134.053 c 82.76,0 149.849,55.383 149.849,123.702 0,68.318 -67.089,123.701 -149.849,123.701 -82.76,0 -149.85,-55.383 -149.85,-123.701 0,-68.319 67.09,-123.702 149.85,-123.702 z" />
    <path
       style="fill:#ffffff;fill-rule:evenodd;stroke:#ffffff;stroke-width:1.33333004"
       inkscape:connector-curvature="0"
       id="dp_path004-4"
       d="m 556.031,134.053 c 82.76,0 149.849,55.383 149.849,123.702 0,68.318 -67.089,123.701 -149.849,123.701 -82.76,0 -149.85,-55.383 -149.85,-123.701 0,-68.319 67.09,-123.702 149.85,-123.702 z" />
    <path
       style="fill:#008ed2;fill-rule:evenodd;stroke:#ffffff;stroke-width:1.33333004"
       inkscape:connector-curvature="0"
       id="dp_path005-2"
       d="m 556.029,149.109 c 74.438,0 134.78,48.638 134.78,108.634 0,59.996 -60.342,108.633 -134.78,108.633 -74.437,0 -134.78,-48.637 -134.78,-108.633 0,-59.996 60.343,-108.634 134.78,-108.634 z" />
    <text
       style="font-size:205px;font-weight:400;fill:#fdfdff;font-family:Arial Unicode MS"
       id="dp_text001-3"
       transform="translate(491.761,325.78)"
       xml:space="preserve"
       font-size="205"
       font-weight="400"
       x="0"
       y="0">B </text>
  </g>
  <path
     style="fill:#010101"
     inkscape:connector-curvature="0"
     d="m 108.85715,388.36218 110.2857,-96 -55.14285,96 55.14285,96 -110.2857,-96 z"
     id="path3-2" />
  <g
     inkscape:groupmode="layer"
     id="layer8"
     inkscape:label="Arrow">
    <path
       style="fill:#010101"
       inkscape:connector-curvature="0"
       d="m 108.85715,387.36218 110.2857,-96 -55.14285,96 55.14285,96 -110.2857,-96 z"
       id="path3-2-2" />
    <path
       style="fill:#ba55d3;fill-opacity:1"
       d="m 162.33384,433.90389 c -27.94196,-24.33322 -50.99495,-44.8786 -51.22887,-45.65642 -0.40513,-1.34711 103.27399,-92.72373 104.24303,-91.87362 0.25555,0.22418 -11.14654,20.59402 -25.33799,45.26631 -14.19145,24.67228 -25.78091,45.57033 -25.75436,46.44011 0.0265,0.86978 11.34771,21.1785 25.15812,45.1305 13.81042,23.952 24.79795,43.86099 24.41673,44.24221 -0.38121,0.38121 -23.55471,-19.21588 -51.49666,-43.54909 z"
       id="path3386"
       inkscape:connector-curvature="0" />
  </g>
  <g
     inkscape:groupmode="layer"
     id="layer9"
     inkscape:label="C">
    <path
       style="fill:#ba55d3;fill-rule:evenodd;stroke:#ffffff;stroke-width:1.33333004"
       inkscape:connector-curvature="0"
       id="dp_path002"
       d="m 357.57581,815.88181 c -55.816,-260.677 -122.795,-289.641 -152.564,-393.912 -81.863,-243.2983 424.201,-243.2983 342.338,0 -29.769,104.271 -96.748,133.235 -189.774,393.912 z" />
    <path
       style="fill:#ffffff;fill-rule:evenodd;stroke:#000000;stroke-width:1.33333004"
       inkscape:connector-curvature="0"
       id="dp_path003"
       d="m 377.17981,262.74581 c 82.76,0 149.849,55.383 149.849,123.702 0,68.318 -67.089,123.701 -149.849,123.701 -82.76,0 -149.85,-55.383 -149.85,-123.701 0,-68.319 67.09,-123.702 149.85,-123.702 z" />
    <path
       style="fill:#ffffff;fill-rule:evenodd;stroke:#ffffff;stroke-width:1.33333004"
       inkscape:connector-curvature="0"
       id="dp_path004"
       d="m 377.17981,262.74581 c 82.76,0 149.849,55.383 149.849,123.702 0,68.318 -67.089,123.701 -149.849,123.701 -82.76,0 -149.85,-55.383 -149.85,-123.701 0,-68.319 67.09,-123.702 149.85,-123.702 z" />
    <path
       style="fill:#ba55d3;fill-rule:evenodd;stroke:#ffffff;stroke-width:1.33333004"
       inkscape:connector-curvature="0"
       id="dp_path005"
       d="m 377.17781,277.80181 c 74.438,0 134.78,48.638 134.78,108.634 0,59.996 -60.342,108.633 -134.78,108.633 -74.437,0 -134.78,-48.637 -134.78,-108.633 0,-59.996 60.343,-108.634 134.78,-108.634 z" />
    <text
       style="font-size:205px;font-weight:400;fill:#fdfdff;font-family:Arial Unicode MS"
       id="dp_text001"
       xml:space="preserve"
       font-size="205"
       font-weight="400"
       x="301.90982"
       y="455.47284">C </text>
  </g>
</svg>
