<?xml version="1.0" encoding="UTF-8" standalone="no"?>
<!-- Created with Inkscape (http://www.inkscape.org/) -->

<svg
   xmlns:dc="http://purl.org/dc/elements/1.1/"
   xmlns:cc="http://creativecommons.org/ns#"
   xmlns:rdf="http://www.w3.org/1999/02/22-rdf-syntax-ns#"
   xmlns:svg="http://www.w3.org/2000/svg"
   xmlns="http://www.w3.org/2000/svg"
   xmlns:sodipodi="http://sodipodi.sourceforge.net/DTD/sodipodi-0.dtd"
   xmlns:inkscape="http://www.inkscape.org/namespaces/inkscape"
   width="744.09448819"
   height="1052.3622047"
   id="svg3007"
   version="1.1"
   inkscape:version="0.48.5 r10040"
   sodipodi:docname="ENorth.svg">
  <defs
     id="defs3009" />
  <sodipodi:namedview
     id="base"
     pagecolor="#ffffff"
     bordercolor="#666666"
     borderopacity="1.0"
     inkscape:pageopacity="0.0"
     inkscape:pageshadow="2"
     inkscape:zoom="0.70710678"
     inkscape:cx="378.83399"
     inkscape:cy="607.11287"
     inkscape:document-units="px"
     inkscape:current-layer="layer8"
     showgrid="false"
     inkscape:window-width="1366"
     inkscape:window-height="705"
     inkscape:window-x="-8"
     inkscape:window-y="-8"
     inkscape:window-maximized="1" />
  <metadata
     id="metadata3012">
    <rdf:RDF>
      <cc:Work
         rdf:about="">
        <dc:format>image/svg+xml</dc:format>
        <dc:type
           rdf:resource="http://purl.org/dc/dcmitype/StillImage" />
        <dc:title />
      </cc:Work>
    </rdf:RDF>
  </metadata>
  <g
     id="dp_group001-7"
     transform="translate(-179.032,129.36605)">
    <path
       style="fill:#008ed2;fill-rule:evenodd;stroke:#ffffff;stroke-width:1.33333004"
       inkscape:connector-curvature="0"
       id="dp_path002-6"
       d="M 536.427,687.189 C 480.611,426.512 413.632,397.548 383.863,293.277 302,49.9787 808.064,49.9787 726.201,293.277 696.432,397.548 629.453,426.512 536.427,687.189 z" />
    <path
       style="fill:#ffffff;fill-rule:evenodd;stroke:#000000;stroke-width:1.33333004"
       inkscape:connector-curvature="0"
       id="dp_path003-1"
       d="m 556.031,134.053 c 82.76,0 149.849,55.383 149.849,123.702 0,68.318 -67.089,123.701 -149.849,123.701 -82.76,0 -149.85,-55.383 -149.85,-123.701 0,-68.319 67.09,-123.702 149.85,-123.702 z" />
    <path
       style="fill:#ffffff;fill-rule:evenodd;stroke:#ffffff;stroke-width:1.33333004"
       inkscape:connector-curvature="0"
       id="dp_path004-4"
       d="m 556.031,134.053 c 82.76,0 149.849,55.383 149.849,123.702 0,68.318 -67.089,123.701 -149.849,123.701 -82.76,0 -149.85,-55.383 -149.85,-123.701 0,-68.319 67.09,-123.702 149.85,-123.702 z" />
    <path
       style="fill:#008ed2;fill-rule:evenodd;stroke:#ffffff;stroke-width:1.33333004"
       inkscape:connector-curvature="0"
       id="dp_path005-2"
       d="m 556.029,149.109 c 74.438,0 134.78,48.638 134.78,108.634 0,59.996 -60.342,108.633 -134.78,108.633 -74.437,0 -134.78,-48.637 -134.78,-108.633 0,-59.996 60.343,-108.634 134.78,-108.634 z" />
    <text
       style="font-size:205px;font-weight:400;fill:#fdfdff;font-family:Arial Unicode MS"
       id="dp_text001-3"
       transform="translate(491.761,325.78)"
       xml:space="preserve"
       font-size="205"
       font-weight="400"
       x="0"
       y="0">B </text>
  </g>
  <g
     inkscape:groupmode="layer"
     id="layer14"
     inkscape:label="A">
    <g
       id="dp_group001"
       transform="translate(-179.43698,127.2786)">
      <path
         style="fill:#00624f;fill-rule:evenodd;stroke:#ffffff;stroke-width:1.33333004"
         inkscape:connector-curvature="0"
         id="dp_path002-2"
         d="M 536.427,687.189 C 480.611,426.512 413.632,397.548 383.863,293.277 302,49.9787 808.064,49.9787 726.201,293.277 696.432,397.548 629.453,426.512 536.427,687.189 z" />
      <path
         style="fill:#ffffff;fill-rule:evenodd;stroke:#000000;stroke-width:1.33333004"
         inkscape:connector-curvature="0"
         id="dp_path003-8"
         d="m 556.031,134.053 c 82.76,0 149.849,55.383 149.849,123.702 0,68.318 -67.089,123.701 -149.849,123.701 -82.76,0 -149.85,-55.383 -149.85,-123.701 0,-68.319 67.09,-123.702 149.85,-123.702 z" />
      <path
         style="fill:#ffffff;fill-rule:evenodd;stroke:#ffffff;stroke-width:1.33333004"
         inkscape:connector-curvature="0"
         id="dp_path004-6"
         d="m 556.031,134.053 c 82.76,0 149.849,55.383 149.849,123.702 0,68.318 -67.089,123.701 -149.849,123.701 -82.76,0 -149.85,-55.383 -149.85,-123.701 0,-68.319 67.09,-123.702 149.85,-123.702 z" />
      <path
         style="fill:#00624f;fill-rule:evenodd;stroke:#ffffff;stroke-width:1.33333004"
         inkscape:connector-curvature="0"
         id="dp_path005-0"
         d="m 556.029,149.109 c 74.438,0 134.78,48.638 134.78,108.634 0,59.996 -60.342,108.633 -134.78,108.633 -74.437,0 -134.78,-48.637 -134.78,-108.633 0,-59.996 60.343,-108.634 134.78,-108.634 z" />
      <text
         style="font-size:205px;font-weight:400;fill:#fdfdff;font-family:Arial Unicode MS"
         id="dp_text001-2"
         transform="translate(491.761,325.78)"
         xml:space="preserve"
         font-size="205"
         font-weight="400"
         x="0"
         y="0">A </text>
    </g>
  </g>
  <g
     inkscape:groupmode="layer"
     id="layer13"
     inkscape:label="B">
    <g
       id="dp_group001-4"
       transform="translate(-180.19801,126.62071)">
      <path
         style="fill:#008ed2;fill-rule:evenodd;stroke:#ffffff;stroke-width:1.33333004"
         inkscape:connector-curvature="0"
         id="dp_path002-8"
         d="M 536.427,687.189 C 480.611,426.512 413.632,397.548 383.863,293.277 302,49.9787 808.064,49.9787 726.201,293.277 696.432,397.548 629.453,426.512 536.427,687.189 z" />
      <path
         style="fill:#ffffff;fill-rule:evenodd;stroke:#000000;stroke-width:1.33333004"
         inkscape:connector-curvature="0"
         id="dp_path003-6"
         d="m 556.031,134.053 c 82.76,0 149.849,55.383 149.849,123.702 0,68.318 -67.089,123.701 -149.849,123.701 -82.76,0 -149.85,-55.383 -149.85,-123.701 0,-68.319 67.09,-123.702 149.85,-123.702 z" />
      <path
         style="fill:#ffffff;fill-rule:evenodd;stroke:#ffffff;stroke-width:1.33333004"
         inkscape:connector-curvature="0"
         id="dp_path004-5"
         d="m 556.031,134.053 c 82.76,0 149.849,55.383 149.849,123.702 0,68.318 -67.089,123.701 -149.849,123.701 -82.76,0 -149.85,-55.383 -149.85,-123.701 0,-68.319 67.09,-123.702 149.85,-123.702 z" />
      <path
         style="fill:#008ed2;fill-rule:evenodd;stroke:#ffffff;stroke-width:1.33333004"
         inkscape:connector-curvature="0"
         id="dp_path005-09"
         d="m 556.029,149.109 c 74.438,0 134.78,48.638 134.78,108.634 0,59.996 -60.342,108.633 -134.78,108.633 -74.437,0 -134.78,-48.637 -134.78,-108.633 0,-59.996 60.343,-108.634 134.78,-108.634 z" />
      <text
         style="font-size:205px;font-weight:400;fill:#fdfdff;font-family:Arial Unicode MS"
         id="dp_text001-0"
         transform="translate(491.761,325.78)"
         xml:space="preserve"
         font-size="205"
         font-weight="400"
         x="0"
         y="0">B </text>
    </g>
  </g>
  <g
     inkscape:groupmode="layer"
     id="layer9"
     inkscape:label="C">
    <path
       style="fill:#ba55d3;fill-rule:evenodd;stroke:#ffffff;stroke-width:1.33333004"
       inkscape:connector-curvature="0"
       id="dp_path002"
       d="m 357.57581,813.88181 c -55.816,-260.677 -122.795,-289.641 -152.564,-393.912 -81.863,-243.2983 424.201,-243.2983 342.338,0 -29.769,104.271 -96.748,133.235 -189.774,393.912 z" />
    <path
       style="fill:#ffffff;fill-rule:evenodd;stroke:#000000;stroke-width:1.33333004"
       inkscape:connector-curvature="0"
       id="dp_path003"
       d="m 377.17981,262.74581 c 82.76,0 149.849,55.383 149.849,123.702 0,68.318 -67.089,123.701 -149.849,123.701 -82.76,0 -149.85,-55.383 -149.85,-123.701 0,-68.319 67.09,-123.702 149.85,-123.702 z" />
    <path
       style="fill:#ffffff;fill-rule:evenodd;stroke:#ffffff;stroke-width:1.33333004"
       inkscape:connector-curvature="0"
       id="dp_path004"
       d="m 377.17981,262.74581 c 82.76,0 149.849,55.383 149.849,123.702 0,68.318 -67.089,123.701 -149.849,123.701 -82.76,0 -149.85,-55.383 -149.85,-123.701 0,-68.319 67.09,-123.702 149.85,-123.702 z" />
    <path
       style="fill:#ba55d3;fill-rule:evenodd;stroke:#ffffff;stroke-width:1.33333004"
       inkscape:connector-curvature="0"
       id="dp_path005"
       d="m 377.17781,277.80181 c 74.438,0 134.78,48.638 134.78,108.634 0,59.996 -60.342,108.633 -134.78,108.633 -74.437,0 -134.78,-48.637 -134.78,-108.633 0,-59.996 60.343,-108.634 134.78,-108.634 z" />
    <text
       style="font-size:205px;font-weight:400;fill:#fdfdff;font-family:Arial Unicode MS"
       id="dp_text001"
       xml:space="preserve"
       font-size="205"
       font-weight="400"
       x="301.90982"
       y="455.47284">C </text>
  </g>
  <g
     inkscape:groupmode="layer"
     id="layer17"
     inkscape:label="F">
    <g
       id="dp_group001-8"
       transform="translate(-178.85119,126.79332)">
      <path
         style="fill:#724b48;fill-rule:evenodd;stroke:#ffffff;stroke-width:1.33333004"
         inkscape:connector-curvature="0"
         id="dp_path002-29"
         d="M 536.427,687.189 C 480.611,426.512 413.632,397.548 383.863,293.277 302,49.9787 808.064,49.9787 726.201,293.277 696.432,397.548 629.453,426.512 536.427,687.189 z" />
      <path
         style="fill:#ffffff;fill-rule:evenodd;stroke:#000000;stroke-width:1.33333004"
         inkscape:connector-curvature="0"
         id="dp_path003-13"
         d="m 556.031,134.053 c 82.76,0 149.849,55.383 149.849,123.702 0,68.318 -67.089,123.701 -149.849,123.701 -82.76,0 -149.85,-55.383 -149.85,-123.701 0,-68.319 67.09,-123.702 149.85,-123.702 z" />
      <path
         style="fill:#ffffff;fill-rule:evenodd;stroke:#ffffff;stroke-width:1.33333004"
         inkscape:connector-curvature="0"
         id="dp_path004-59"
         d="m 556.031,134.053 c 82.76,0 149.849,55.383 149.849,123.702 0,68.318 -67.089,123.701 -149.849,123.701 -82.76,0 -149.85,-55.383 -149.85,-123.701 0,-68.319 67.09,-123.702 149.85,-123.702 z" />
      <path
         style="fill:#724b48;fill-rule:evenodd;stroke:#ffffff;stroke-width:1.33333004"
         inkscape:connector-curvature="0"
         id="dp_path005-8"
         d="m 556.029,149.109 c 74.438,0 134.78,48.638 134.78,108.634 0,59.996 -60.342,108.633 -134.78,108.633 -74.437,0 -134.78,-48.637 -134.78,-108.633 0,-59.996 60.343,-108.634 134.78,-108.634 z" />
      <text
         style="font-size:203px;font-weight:400;fill:#fdfdff;font-family:Arial Unicode MS"
         id="dp_text001-4"
         transform="translate(495.761,329.389)"
         xml:space="preserve"
         font-size="203"
         font-weight="400"
         x="0"
         y="0.0013333299">F </text>
    </g>
  </g>
  <g
     inkscape:groupmode="layer"
     id="layer15"
     inkscape:label="D">
    <g
       id="dp_group001-0"
       transform="translate(-178.85119,126.45017)">
      <path
         style="fill:#ee3337;fill-rule:evenodd;stroke:#ffffff;stroke-width:1.33333004"
         inkscape:connector-curvature="0"
         id="dp_path002-61"
         d="M 536.427,687.189 C 480.611,426.512 413.632,397.548 383.863,293.277 302,49.9787 808.064,49.9787 726.201,293.277 696.432,397.548 629.453,426.512 536.427,687.189 z" />
      <path
         style="fill:#ffffff;fill-rule:evenodd;stroke:#000000;stroke-width:1.33333004"
         inkscape:connector-curvature="0"
         id="dp_path003-3"
         d="m 556.031,134.053 c 82.76,0 149.849,55.383 149.849,123.702 0,68.318 -67.089,123.701 -149.849,123.701 -82.76,0 -149.85,-55.383 -149.85,-123.701 0,-68.319 67.09,-123.702 149.85,-123.702 z" />
      <path
         style="fill:#ffffff;fill-rule:evenodd;stroke:#ffffff;stroke-width:1.33333004"
         inkscape:connector-curvature="0"
         id="dp_path004-8"
         d="m 556.031,134.053 c 82.76,0 149.849,55.383 149.849,123.702 0,68.318 -67.089,123.701 -149.849,123.701 -82.76,0 -149.85,-55.383 -149.85,-123.701 0,-68.319 67.09,-123.702 149.85,-123.702 z" />
      <path
         style="fill:#ee3337;fill-rule:evenodd;stroke:#ffffff;stroke-width:1.33333004"
         inkscape:connector-curvature="0"
         id="dp_path005-9"
         d="m 556.029,149.109 c 74.438,0 134.78,48.638 134.78,108.634 0,59.996 -60.342,108.633 -134.78,108.633 -74.437,0 -134.78,-48.637 -134.78,-108.633 0,-59.996 60.343,-108.634 134.78,-108.634 z" />
      <text
         style="font-size:205px;font-weight:400;fill:#fdfdff;font-family:Arial Unicode MS"
         id="dp_text001-34"
         transform="translate(491.761,328.78)"
         xml:space="preserve"
         font-size="205"
         font-weight="400"
         x="0"
         y="0">D </text>
    </g>
  </g>
  <g
     inkscape:groupmode="layer"
     id="layer16"
     inkscape:label="E">
    <path
       d="m 358.16159,812.71025 c -55.816,-260.677 -122.795,-289.641 -152.564,-393.912 -81.863,-243.2983 424.201,-243.2983 342.338,0 -29.769,104.271 -96.748,133.235 -189.774,393.912 z"
       id="dp_path002-4"
       inkscape:connector-curvature="0"
       style="fill:#e0bc38;fill-opacity:1;fill-rule:evenodd;stroke:#ffffff;stroke-width:1.33333004" />
    <path
       d="m 377.76559,257.57425 c 82.76,0 149.849,55.383 149.849,123.702 0,68.318 -67.089,123.701 -149.849,123.701 -82.76,0 -149.85,-55.383 -149.85,-123.701 0,-68.319 67.09,-123.702 149.85,-123.702 z"
       id="dp_path003-9"
       inkscape:connector-curvature="0"
       style="fill:#ffffff;fill-rule:evenodd;stroke:#000000;stroke-width:1.33333004" />
    <path
       d="m 377.76559,257.57425 c 82.76,0 149.849,55.383 149.849,123.702 0,68.318 -67.089,123.701 -149.849,123.701 -82.76,0 -149.85,-55.383 -149.85,-123.701 0,-68.319 67.09,-123.702 149.85,-123.702 z"
       id="dp_path004-63"
       inkscape:connector-curvature="0"
       style="fill:#ffffff;fill-rule:evenodd;stroke:#ffffff;stroke-width:1.33333004" />
    <path
       d="m 377.76359,272.63025 c 74.438,0 134.78,48.638 134.78,108.634 0,59.996 -60.342,108.633 -134.78,108.633 -74.437,0 -134.78,-48.637 -134.78,-108.633 0,-59.996 60.343,-108.634 134.78,-108.634 z"
       id="dp_path005-7"
       inkscape:connector-curvature="0"
       style="fill:#e0bc38;fill-opacity:1;fill-rule:evenodd;stroke:#ffffff;stroke-width:1.33333004" />
    <text
       y="448.91159"
       x="309.49561"
       font-weight="400"
       font-size="203"
       xml:space="preserve"
       id="dp_text001-8"
       style="font-size:203px;font-weight:400;fill:#fdfdff;font-family:Arial Unicode MS">E </text>
  </g>
  <g
     inkscape:groupmode="layer"
     id="layer8"
     inkscape:label="Arrow">
    <path
       style="fill:#010101"
       inkscape:connector-curvature="0"
       d="m 373.30362,141.3005 96,110.2857 -96,-55.14285 -96,55.14285 96,-110.2857 z"
       id="path3-2-2" />
    <path
       style="fill:#e0bc38;fill-opacity:1"
       d="m 325.42917,197.40839 c 23.828,-27.41807 44.3655,-50.96161 45.63888,-52.31899 2.17374,-2.31712 5.0361,0.65609 46.8306,48.64414 24.48345,28.11166 44.72643,51.65204 44.98441,52.31195 0.25798,0.65991 -19.45675,-10.25213 -43.81053,-24.24896 -24.35377,-13.99684 -44.94973,-25.4488 -45.7688,-25.4488 -0.81907,0 -21.42481,11.45513 -45.79054,25.45584 -24.36572,14.00072 -44.55024,25.45585 -44.85448,25.45585 -0.30425,0 18.94246,-22.43297 42.77046,-49.85103 z"
       id="path3554"
       inkscape:connector-curvature="0" />
  </g>
</svg>
