<?xml version="1.0" encoding="UTF-8" standalone="no"?>
<!-- Created with Inkscape (http://www.inkscape.org/) -->

<svg
   xmlns:dc="http://purl.org/dc/elements/1.1/"
   xmlns:cc="http://creativecommons.org/ns#"
   xmlns:rdf="http://www.w3.org/1999/02/22-rdf-syntax-ns#"
   xmlns:svg="http://www.w3.org/2000/svg"
   xmlns="http://www.w3.org/2000/svg"
   xmlns:sodipodi="http://sodipodi.sourceforge.net/DTD/sodipodi-0.dtd"
   xmlns:inkscape="http://www.inkscape.org/namespaces/inkscape"
   width="744.09448819"
   height="1052.3622047"
   id="svg3007"
   version="1.1"
   inkscape:version="0.48.5 r10040"
   sodipodi:docname="EWest.svg">
  <defs
     id="defs3009" />
  <sodipodi:namedview
     id="base"
     pagecolor="#ffffff"
     bordercolor="#666666"
     borderopacity="1.0"
     inkscape:pageopacity="0.0"
     inkscape:pageshadow="2"
     inkscape:zoom="0.35"
     inkscape:cx="375"
     inkscape:cy="520"
     inkscape:document-units="px"
     inkscape:current-layer="layer1"
     showgrid="false"
     inkscape:window-width="1366"
     inkscape:window-height="705"
     inkscape:window-x="-8"
     inkscape:window-y="-8"
     inkscape:window-maximized="1" />
  <metadata
     id="metadata3012">
    <rdf:RDF>
      <cc:Work
         rdf:about="">
        <dc:format>image/svg+xml</dc:format>
        <dc:type
           rdf:resource="http://purl.org/dc/dcmitype/StillImage" />
        <dc:title></dc:title>
      </cc:Work>
    </rdf:RDF>
  </metadata>
  <g
     inkscape:label="Layer 1"
     inkscape:groupmode="layer"
     id="layer1">
    <path
       d="m 356.395,820.55505 c -55.816,-260.677 -122.795,-289.641 -152.564,-393.912 -81.863,-243.2983 424.201,-243.2983 342.338,0 -29.769,104.271 -96.748,133.235 -189.774,393.912 z"
       id="dp_path002"
       inkscape:connector-curvature="0"
       style="fill:#e0bc38;fill-rule:evenodd;stroke:#ffffff;stroke-width:1.33333004000000010;fill-opacity:1" />
    <path
       d="m 375.999,267.41905 c 82.76,0 149.849,55.383 149.849,123.702 0,68.318 -67.089,123.701 -149.849,123.701 -82.76,0 -149.85,-55.383 -149.85,-123.701 0,-68.319 67.09,-123.702 149.85,-123.702 z"
       id="dp_path003"
       inkscape:connector-curvature="0"
       style="fill:#ffffff;fill-rule:evenodd;stroke:#000000;stroke-width:1.33333004" />
    <path
       d="m 375.999,267.41905 c 82.76,0 149.849,55.383 149.849,123.702 0,68.318 -67.089,123.701 -149.849,123.701 -82.76,0 -149.85,-55.383 -149.85,-123.701 0,-68.319 67.09,-123.702 149.85,-123.702 z"
       id="dp_path004"
       inkscape:connector-curvature="0"
       style="fill:#ffffff;fill-rule:evenodd;stroke:#ffffff;stroke-width:1.33333004" />
    <path
       d="m 375.997,282.47505 c 74.438,0 134.78,48.638 134.78,108.634 0,59.996 -60.342,108.633 -134.78,108.633 -74.437,0 -134.78,-48.637 -134.78,-108.633 0,-59.996 60.343,-108.634 134.78,-108.634 z"
       id="dp_path005"
       inkscape:connector-curvature="0"
       style="fill:#e0bc38;fill-rule:evenodd;stroke:#ffffff;stroke-width:1.33333004000000010;fill-opacity:1" />
    <text
       y="458.75638"
       x="307.729"
       font-weight="400"
       font-size="203"
       xml:space="preserve"
       id="dp_text001"
       style="font-size:203px;font-weight:400;fill:#fdfdff;font-family:Arial Unicode MS">E </text>
    <path
       style="fill:#e0bc38;fill-opacity:1"
       inkscape:connector-curvature="0"
       d="M 374.28571,157.21933 488.85715,267.50504 374.28571,212.36219 259.71429,267.50504 374.28571,157.21933 z"
       id="path3" />
  </g>
</svg>
