<?xml version="1.0" encoding="UTF-8" standalone="no"?>
<!-- Created with Inkscape (http://www.inkscape.org/) -->

<svg
   xmlns:dc="http://purl.org/dc/elements/1.1/"
   xmlns:cc="http://creativecommons.org/ns#"
   xmlns:rdf="http://www.w3.org/1999/02/22-rdf-syntax-ns#"
   xmlns:svg="http://www.w3.org/2000/svg"
   xmlns="http://www.w3.org/2000/svg"
   xmlns:sodipodi="http://sodipodi.sourceforge.net/DTD/sodipodi-0.dtd"
   xmlns:inkscape="http://www.inkscape.org/namespaces/inkscape"
   width="100.31111mm"
   height="132.20222mm"
   viewBox="0 0 355.43308 468.43311"
   id="svg3449"
   version="1.1"
   inkscape:version="0.91 r13725"
   sodipodi:docname="icon_bikerack.svg">
  <defs
     id="defs3451" />
  <sodipodi:namedview
     id="base"
     pagecolor="#ffffff"
     bordercolor="#666666"
     borderopacity="1.0"
     inkscape:pageopacity="0.0"
     inkscape:pageshadow="2"
     inkscape:zoom="0.35"
     inkscape:cx="-482.14286"
     inkscape:cy="520"
     inkscape:document-units="px"
     inkscape:current-layer="svg3449"
     showgrid="false"
     units="mm"
     inkscape:window-width="1362"
     inkscape:window-height="703"
     inkscape:window-x="0"
     inkscape:window-y="18"
     inkscape:window-maximized="0" />
  <metadata
     id="metadata3454">
    <rdf:RDF>
      <cc:Work
         rdf:about="">
        <dc:format>image/svg+xml</dc:format>
        <dc:type
           rdf:resource="http://purl.org/dc/dcmitype/StillImage" />
        <dc:title />
      </cc:Work>
    </rdf:RDF>
  </metadata>
  <g
     inkscape:label="Layer 1"
     inkscape:groupmode="layer"
     id="layer1"
     transform="translate(0,-583.92909)">
    <path
       inkscape:connector-curvature="0"
       id="path4565"
       d="m 182.11193,605.67396 c -86.416656,0 -156.478985,70.04847 -156.478985,156.47437 0,86.41666 156.478985,271.63347 156.478985,271.63347 0,0 156.47899,-185.21219 156.47899,-271.63347 0,-86.42128 -70.05309,-156.47437 -156.47899,-156.47437 z"
       sodipodi:nodetypes="sscss"
       style="fill:#006747;fill-opacity:1;fill-rule:nonzero;stroke:#000000;stroke-opacity:1" />
  </g>
  <g
     id="g8"
     transform="matrix(2.0222108,0,0,2.6468361,80.605991,39.874744)">
    <path
       d="m 94.721,74.289 -5.469,0 0,-31.022 c 0,-6.665 -5.421,-12.087 -12.086,-12.087 l -54.332,0 c -6.664,0 -12.086,5.422 -12.086,12.087 l 0,31.022 -5.469,0 0,-31.022 c 0,-9.68 7.875,-17.556 17.555,-17.556 l 54.332,0 c 9.68,0 17.555,7.875 17.555,17.556 l 0,31.022 z"
       id="path10"
       inkscape:connector-curvature="0" style="fill:#ffffff" />
  </g>
</svg>
