<?xml version="1.0" encoding="UTF-8" standalone="no"?>
<!-- Created with Inkscape (http://www.inkscape.org/) -->

<svg
   xmlns:osb="http://www.openswatchbook.org/uri/2009/osb"
   xmlns:dc="http://purl.org/dc/elements/1.1/"
   xmlns:cc="http://creativecommons.org/ns#"
   xmlns:rdf="http://www.w3.org/1999/02/22-rdf-syntax-ns#"
   xmlns:svg="http://www.w3.org/2000/svg"
   xmlns="http://www.w3.org/2000/svg"
   xmlns:sodipodi="http://sodipodi.sourceforge.net/DTD/sodipodi-0.dtd"
   xmlns:inkscape="http://www.inkscape.org/namespaces/inkscape"
   width="100.31111mm"
   height="132.20222mm"
   viewBox="0 0 355.43308 468.43311"
   id="svg3449"
   version="1.1"
   inkscape:version="0.91 r"
   sodipodi:docname="marker-bluephone.svg">
  <defs
     id="defs3451">
    <linearGradient
       id="linearGradient4780"
       osb:paint="solid">
      <stop
         style="stop-color:#000000;stop-opacity:1;"
         offset="0"
         id="stop4782" />
    </linearGradient>
  </defs>
  <sodipodi:namedview
     id="base"
     pagecolor="#ffffff"
     bordercolor="#666666"
     borderopacity="1.0"
     inkscape:pageopacity="0.0"
     inkscape:pageshadow="2"
     inkscape:zoom="0.35"
     inkscape:cx="230.71428"
     inkscape:cy="160"
     inkscape:document-units="px"
     inkscape:current-layer="layer1"
     showgrid="false"
     units="mm"
     inkscape:window-width="1901"
     inkscape:window-height="717"
     inkscape:window-x="0"
     inkscape:window-y="27"
     inkscape:window-maximized="1" />
  <metadata
     id="metadata3454">
    <rdf:RDF>
      <cc:Work
         rdf:about="">
        <dc:format>image/svg+xml</dc:format>
        <dc:type
           rdf:resource="http://purl.org/dc/dcmitype/StillImage" />
        <dc:title></dc:title>
      </cc:Work>
    </rdf:RDF>
  </metadata>
  <g
     inkscape:label="Layer 1"
     inkscape:groupmode="layer"
     id="layer1"
     transform="translate(0,-583.92909)"
     style="display:inline">
    <path
       inkscape:connector-curvature="0"
       id="path4565"
       d="m 177.71652,605.67396 c -86.416646,0 -156.478976,70.04847 -156.478976,156.47437 0,86.41666 156.478976,271.63347 156.478976,271.63347 0,0 156.479,-185.21219 156.479,-271.63347 0,-86.42128 -70.05309,-156.47437 -156.479,-156.47437 z"
       sodipodi:nodetypes="sscss"
       style="fill:#2880ca;fill-opacity:1;fill-rule:nonzero;stroke:#000000;stroke-opacity:1" />
  </g>
  <g
     inkscape:groupmode="layer"
     id="layer2"
     inkscape:label="Layer 2"
     style="display:inline">
    <path
       inkscape:connector-curvature="0"
       id="path4565-5"
       d="m 177.71652,10.9831 c -92.196789,0 -166.945508,74.734 -166.945508,166.94069 0,92.19699 166.945508,289.80262 166.945508,289.80262 0,0 166.94553,-197.60084 166.94553,-289.80262 0,-92.20178 -74.73871,-166.94069 -166.94553,-166.94069 z"
       sodipodi:nodetypes="sscss"
       style="fill:none;fill-opacity:1;fill-rule:nonzero;stroke:#000000;stroke-width:1.06688809;stroke-opacity:1" />
  </g>
  <path
     inkscape:connector-curvature="0"
     d="m 134.76193,176.55576 c 11.49714,22.59508 30.02032,41.11826 52.6154,52.6154 l 17.56508,-17.56508 c 2.23556,-2.23555 5.34937,-2.87428 8.14381,-1.99603 8.94222,2.95413 18.52318,4.55095 28.50334,4.55095 4.39127,0 7.98412,3.59286 7.98412,7.98413 l 0,27.94445 c 0,4.39127 -3.59285,7.98412 -7.98412,7.98412 -74.97096,0 -135.73017,-60.75921 -135.73017,-135.73016 0,-4.39127 3.59286,-7.98413 7.98413,-7.98413 l 27.94444,0 c 4.39127,0 7.98413,3.59286 7.98413,7.98413 0,9.98016 1.59683,19.56111 4.55095,28.50333 0.87826,2.79445 0.23953,5.90826 -1.99603,8.14381 l -17.56508,17.56508 z"
     id="path4198"
     style="fill:#ffffff;fill-opacity:1" />
</svg>
