<?xml version="1.0" encoding="UTF-8" standalone="no"?>
<!-- Created with Serif DrawPlus 11, 0, 0, 18 (Mar 20, 15:09:53) (http://www.serif.com) -->
<svg version="1.1" xmlns="http://www.w3.org/2000/svg" xmlns:xlink="http://www.w3.org/1999/xlink" xmlns:inkscape="http://www.inkscape.org/namespaces/inkscape" width="816" height="1056">
	<g id="Layer_1" inkscape:label="Layer 1" inkscape:groupmode="layer">
		<path id="dp_path001" fill="white" fill-rule="evenodd" stroke="black" stroke-width="1.33333" d="M 556.031,134.053 C 638.791,134.053 705.88,189.436 705.88,257.755 C 705.88,326.073 638.791,381.456 556.031,381.456 C 473.271,381.456 406.181,326.073 406.181,257.755 C 406.181,189.436 473.271,134.053 556.031,134.053 Z "/>
		<path id="dp_path002" fill="#383536" fill-rule="evenodd" stroke="white" stroke-width="1.33333" d="M 556.031,134.053 C 638.791,134.053 705.88,189.436 705.88,257.755 C 705.88,326.073 638.791,381.456 556.031,381.456 C 473.271,381.456 406.181,326.073 406.181,257.755 C 406.181,189.436 473.271,134.053 556.031,134.053 Z "/>
		<path id="dp_path003" fill="#529a8c" fill-rule="evenodd" d="M 556.029,149.109 C 630.467,149.109 690.809,197.747 690.809,257.743 C 690.809,317.739 630.467,366.376 556.029,366.376 C 481.592,366.376 421.249,317.739 421.249,257.743 C 421.249,197.747 481.592,149.109 556.029,149.109 Z "/>
	</g>
</svg>