<?xml version="1.0" encoding="UTF-8" standalone="no"?>
<!-- Created with Serif DrawPlus 11, 0, 0, 18 (Mar 20, 15:09:53) (http://www.serif.com) -->
<svg version="1.1" xmlns="http://www.w3.org/2000/svg" xmlns:xlink="http://www.w3.org/1999/xlink" xmlns:inkscape="http://www.inkscape.org/namespaces/inkscape" width="816" height="1056">
	<g id="Layer_1" inkscape:label="Layer 1" inkscape:groupmode="layer">
		<path id="dp_path001" fill="#00965b" fill-rule="evenodd" stroke="black" stroke-width="1.33333" d="M 534.488,959.693 C 284.804,611.959 209.899,573.321 176.607,434.228 C 85.056,109.676 651.008,109.676 559.457,434.228 C 526.165,573.321 451.26,611.959 534.488,959.693 Z "/>
		<path id="dp_path005" fill="black" fill-rule="evenodd" stroke="white" stroke-width="0.666667" d="M 366.431,202.495 C 470.585,202.495 555.023,281.212 555.023,378.316 L 553.416,393.565 L 550.404,408.559 L 546.015,423.177 L 540.304,437.313 L 533.32,450.868 L 525.132,463.737 L 515.813,475.833 L 505.447,487.064 L 494.123,497.361 L 481.935,506.649 L 468.991,514.865 L 455.388,521.961 L 441.243,527.892 L 426.672,532.623 L 411.787,536.129 L 396.705,538.397 L 381.547,539.421 L 366.431,539.209 L 351.467,537.769 L 336.772,535.129 L 322.456,531.323 L 308.624,526.385 L 295.377,520.377 L 282.809,513.344 L 271.016,505.355 L 260.073,496.484 L 250.06,486.805 L 241.041,476.404 L 233.08,465.367 L 226.217,453.784 L 220.501,441.756 L 215.963,429.372 L 212.621,416.736 L 210.491,403.948 L 209.575,391.108 L 209.864,378.316 L 211.347,365.667 L 213.995,353.26 L 217.776,341.181 L 222.651,329.528 L 228.564,318.383 L 235.463,307.823 L 243.28,297.924 L 251.948,288.759 L 261.383,280.383 L 271.509,272.855 L 282.241,266.223 L 293.487,260.525 L 305.152,255.8 L 317.143,252.065 L 329.363,249.341 L 341.716,247.639 L 354.105,246.952 L 366.431,247.28 L 378.603,248.608 L 390.528,250.904 L 402.116,254.149 L 413.283,258.299 L 423.949,263.315 L 434.036,269.145 L 443.476,275.733 L 452.201,283.02 L 460.153,290.939 L 467.284,299.42 L 473.551,308.391 L 478.909,317.776 L 483.335,327.496 L 486.803,337.471 L 489.304,347.623 L 490.831,357.867 L 491.381,368.127 L 490.973,378.316 L 489.612,388.361 L 487.327,398.188 L 484.148,407.723 L 480.115,416.891 L 475.269,425.631 L 469.661,433.879 L 463.348,441.58 L 456.383,448.684 L 448.832,455.137 L 440.764,460.905 L 432.251,465.953 L 423.361,470.248 L 414.175,473.775 L 404.765,476.511 L 395.209,478.449 L 385.583,479.592 L 375.964,479.935 L 366.431,479.497 L 357.051,478.284 L 347.893,476.323 L 339.033,473.645 L 330.528,470.275 L 322.445,466.256 L 314.836,461.631 L 307.753,456.44 L 301.247,450.743 L 295.351,444.581 L 290.107,438.02 L 285.545,431.116 L 281.688,423.928 L 278.552,416.519 L 276.151,408.948 L 274.489,401.281 L 273.568,393.581 L 273.379,385.904 L 273.913,378.316 L 275.153,370.872 L 277.072,363.627 L 279.645,356.639 L 282.839,349.951 L 286.612,343.617 L 290.931,337.68 L 295.747,332.173 L 301.012,327.14 L 306.673,322.605 L 312.681,318.599 L 318.98,315.137 L 325.511,312.239 L 332.219,309.917 L 339.049,308.179 L 345.94,307.021 L 352.839,306.444 L 359.687,306.436 L 366.431,306.992 L 373.019,308.092 L 379.405,309.711 L 385.539,311.827 L 391.379,314.412 L 396.881,317.432 L 402.011,320.859 L 406.737,324.647 L 411.032,328.764 L 414.865,333.161 L 418.22,337.8 L 421.081,342.641 L 423.439,347.633 L 425.284,352.731 L 426.616,357.893 L 427.437,363.076 L 427.753,368.236 L 427.577,373.328 L 426.921,378.316 L 425.803,383.156 L 424.249,387.819 L 422.28,392.267 L 419.928,396.468 L 417.221,400.396 L 414.193,404.024 L 410.879,407.332 L 407.316,410.3 L 403.54,412.915 L 399.596,415.161 L 395.512,417.04 L 391.336,418.536 L 387.108,419.656 L 382.857,420.397 L 378.632,420.772 L 374.461,420.785 L 370.383,420.451 L 366.431,419.783 L 362.633,418.797 L 359.016,417.519 L 355.611,415.963 L 352.436,414.164 L 349.513,412.139 L 346.861,409.917 L 344.492,407.527 L 342.415,404.996 L 340.643,402.359 L 339.173,399.637 L 338.012,396.865 L 337.156,394.071 L 336.6,391.281 L 336.337,388.525 L 336.356,385.828 L 336.645,383.211 L 337.188,380.7 L 337.964,378.316 L 338.96,376.076 L 340.147,373.996 L 341.511,372.092 L 343.025,370.375 L 344.663,368.855 L 346.4,367.537 L 348.215,366.424 L 350.076,365.523 L 351.964,364.829 L 353.852,364.339 L 355.716,364.051 L 357.536,363.952 L 359.289,364.035 L 360.956,364.289 L 362.517,364.697 L 363.96,365.248 L 365.269,365.927 L 366.431,366.704 L 367.436,367.576 L 368.281,368.515 L 368.96,369.504 L 369.472,370.523 L 369.813,371.553 L 369.988,372.572 L 370,373.561 L 369.859,374.505 L 369.575,375.385 L 369.153,376.184 L 368.616,376.891 L 367.971,377.488 L 367.236,377.968 L 366.431,378.316 L 366.056,377.564 L 365.543,376.88 L 364.9,376.277 L 364.145,375.775 L 363.287,375.385 L 362.344,375.117 L 361.331,374.987 L 360.269,375 L 359.173,375.163 L 358.071,375.481 L 356.98,375.956 L 355.919,376.589 L 354.911,377.379 L 353.976,378.316 L 353.139,379.397 L 352.415,380.619 L 351.823,381.964 L 351.385,383.421 L 351.113,384.975 L 351.024,386.608 L 351.129,388.303 L 351.437,390.043 L 351.964,391.803 L 352.709,393.563 L 353.676,395.3 L 354.868,396.989 L 356.28,398.611 L 357.912,400.137 L 359.756,401.547 L 361.796,402.817 L 364.029,403.925 L 366.431,404.855 L 368.987,405.58 L 371.68,406.083 L 374.488,406.353 L 377.381,406.371 L 380.34,406.125 L 383.329,405.609 L 386.328,404.808 L 389.301,403.725 L 392.219,402.359 L 395.052,400.703 L 397.764,398.771 L 400.328,396.559 L 402.708,394.087 L 404.88,391.363 L 406.813,388.403 L 408.48,385.228 L 409.855,381.857 L 410.911,378.316 L 411.627,374.631 L 411.984,370.827 L 411.969,366.94 L 411.568,363 L 410.773,359.04 L 409.573,355.096 L 407.967,351.203 L 405.955,347.397 L 403.54,343.717 L 400.736,340.197 L 397.553,336.876 L 394.007,333.788 L 390.115,330.961 L 385.901,328.441 L 381.393,326.247 L 376.625,324.413 L 371.623,322.961 L 366.431,321.92 L 361.083,321.312 L 355.619,321.144 L 350.084,321.44 L 344.525,322.205 L 338.985,323.447 L 333.517,325.169 L 328.164,327.365 L 322.975,330.032 L 317.996,333.161 L 313.277,336.737 L 308.864,340.736 L 304.801,345.145 L 301.125,349.928 L 297.884,355.059 L 295.112,360.501 L 292.841,366.22 L 291.104,372.173 L 289.927,378.316 L 289.332,384.603 L 289.337,390.988 L 289.956,397.419 L 291.196,403.844 L 293.063,410.208 L 295.553,416.464 L 298.664,422.553 L 302.373,428.425 L 306.673,434.025 L 311.536,439.304 L 316.937,444.212 L 322.843,448.7 L 329.212,452.728 L 336.005,456.248 L 343.177,459.224 L 350.675,461.623 L 358.447,463.412 L 366.431,464.567 L 374.569,465.065 L 382.803,464.892 L 391.065,464.031 L 399.288,462.483 L 407.408,460.243 L 415.355,457.32 L 423.067,453.723 L 430.473,449.469 L 437.509,444.581 L 444.116,439.089 L 450.229,433.02 L 455.796,426.417 L 460.759,419.321 L 465.069,411.785 L 468.684,403.859 L 471.557,395.596 L 473.659,387.061 L 474.959,378.316 L 475.431,369.425 L 475.061,360.46 L 473.837,351.487 L 471.757,342.577 L 468.819,333.803 L 465.04,325.24 L 460.432,316.953 L 455.019,309.013 L 448.832,301.493 L 441.909,294.456 L 434.292,287.963 L 426.029,282.075 L 417.183,276.844 L 407.808,272.328 L 397.972,268.569 L 387.748,265.604 L 377.207,263.477 L 366.431,262.207 L 355.5,261.824 L 344.497,262.34 L 333.507,263.76 L 322.619,266.093 L 311.919,269.329 L 301.492,273.455 L 291.425,278.452 L 281.804,284.291 L 272.707,290.939 L 264.213,298.353 L 256.397,306.487 L 249.331,315.287 L 243.077,324.691 L 237.697,334.633 L 233.245,345.045 L 229.764,355.849 L 227.297,366.969 L 225.876,378.316 L 225.525,389.807 L 226.26,401.357 L 228.089,412.872 L 231.011,424.267 L 235.015,435.445 L 240.087,446.321 L 246.195,456.804 L 253.309,466.807 L 261.383,476.249 L 270.369,485.048 L 280.2,493.125 L 290.817,500.415 L 302.144,506.845 L 314.099,512.359 L 326.6,516.904 L 339.552,520.429 L 352.865,522.899 L 366.431,524.28 L 380.151,524.549 L 393.924,523.696 L 407.643,521.708 L 421.195,518.593 L 434.476,514.363 L 447.38,509.032 L 459.804,502.639 L 471.641,495.211 L 482.8,486.805 L 493.18,477.469 L 502.699,467.268 L 511.267,456.272 L 518.807,444.559 L 525.256,432.208 L 530.551,419.313 L 534.635,405.965 L 537.465,392.267 L 539.011,378.316 L 539.237,364.221 L 538.136,350.091 L 535.707,336.029 L 531.944,322.155 L 526.869,308.569 L 520.511,295.383 L 512.899,282.703 L 504.083,270.631 L 494.123,259.271 L 483.08,248.712 L 471.028,239.047 L 458.055,230.361 L 444.252,222.725 L 429.716,216.217 L 414.549,210.889 L 398.869,206.8 L 382.789,203.992 Z M 366.431,554.137 C 262.275,554.137 177.839,475.419 177.839,378.316 L 179.444,363.067 L 182.456,348.073 L 186.845,333.455 L 192.557,319.319 L 199.54,305.764 L 207.728,292.895 L 217.047,280.799 L 227.413,269.567 L 238.737,259.271 L 250.927,249.983 L 263.871,241.765 L 277.473,234.669 L 291.617,228.74 L 306.189,224.009 L 321.073,220.503 L 336.156,218.233 L 351.313,217.209 L 366.431,217.421 L 381.393,218.863 L 396.089,221.503 L 410.405,225.308 L 424.236,230.245 L 437.483,236.255 L 450.051,243.288 L 461.844,251.276 L 472.787,260.148 L 482.8,269.827 L 491.819,280.228 L 499.781,291.265 L 506.643,302.848 L 512.359,314.876 L 516.899,327.26 L 520.24,339.896 L 522.369,352.683 L 523.287,365.523 L 522.996,378.316 L 521.515,390.964 L 518.865,403.372 L 515.084,415.449 L 510.211,427.103 L 504.296,438.248 L 497.397,448.809 L 489.58,458.708 L 480.912,467.873 L 471.479,476.249 L 461.352,483.777 L 450.619,490.409 L 439.373,496.107 L 427.709,500.832 L 415.719,504.567 L 403.499,507.291 L 391.144,508.993 L 378.756,509.68 L 366.431,509.352 L 354.257,508.024 L 342.332,505.727 L 330.744,502.481 L 319.577,498.333 L 308.911,493.317 L 298.824,487.487 L 289.384,480.899 L 280.659,473.612 L 272.707,465.693 L 265.576,457.212 L 259.309,448.241 L 253.952,438.856 L 249.525,429.136 L 246.057,419.161 L 243.556,409.009 L 242.029,398.765 L 241.479,388.505 L 241.887,378.316 L 243.248,368.271 L 245.533,358.443 L 248.712,348.909 L 252.745,339.741 L 257.591,331 L 263.199,322.752 L 269.513,315.052 L 276.477,307.948 L 284.029,301.493 L 292.097,295.727 L 300.609,290.679 L 309.499,286.383 L 318.685,282.857 L 328.096,280.12 L 337.651,278.183 L 347.277,277.04 L 356.896,276.697 L 366.431,277.135 L 375.809,278.347 L 384.967,280.309 L 393.827,282.985 L 402.332,286.357 L 410.415,290.375 L 418.025,295 L 425.108,300.192 L 431.613,305.889 L 437.509,312.049 L 442.755,318.611 L 447.315,325.516 L 451.172,332.703 L 454.308,340.113 L 456.709,347.683 L 458.371,355.349 L 459.292,363.051 L 459.483,370.728 L 458.948,378.316 L 457.708,385.76 L 455.788,393.005 L 453.216,399.993 L 450.021,406.68 L 446.248,413.013 L 441.931,418.952 L 437.115,424.457 L 431.848,429.492 L 426.187,434.025 L 420.179,438.033 L 413.88,441.493 L 407.351,444.393 L 400.641,446.713 L 393.811,448.453 L 386.92,449.611 L 380.023,450.187 L 373.173,450.195 L 366.431,449.64 L 359.843,448.54 L 353.455,446.921 L 347.323,444.804 L 341.483,442.219 L 335.979,439.199 L 330.849,435.773 L 326.124,431.985 L 321.829,427.868 L 317.996,423.471 L 314.641,418.831 L 311.779,413.991 L 309.423,408.999 L 307.576,403.901 L 306.244,398.739 L 305.423,393.555 L 305.107,388.395 L 305.283,383.303 L 305.939,378.316 L 307.057,373.475 L 308.611,368.813 L 310.581,364.365 L 312.932,360.164 L 315.639,356.235 L 318.667,352.607 L 321.981,349.299 L 325.544,346.332 L 329.32,343.717 L 333.264,341.469 L 337.348,339.592 L 341.524,338.096 L 345.753,336.975 L 350.003,336.233 L 354.229,335.859 L 358.4,335.847 L 362.479,336.181 L 366.431,336.849 L 370.227,337.835 L 373.845,339.112 L 377.249,340.668 L 380.425,342.468 L 383.348,344.492 L 385.999,346.713 L 388.369,349.105 L 390.447,351.636 L 392.219,354.273 L 393.688,356.995 L 394.849,359.765 L 395.704,362.56 L 396.26,365.351 L 396.523,368.105 L 396.505,370.804 L 396.215,373.42 L 395.673,375.932 L 394.896,378.316 L 393.901,380.555 L 392.713,382.635 L 391.349,384.539 L 389.836,386.257 L 388.197,387.777 L 386.46,389.095 L 384.645,390.208 L 382.784,391.108 L 380.896,391.803 L 379.008,392.292 L 377.144,392.58 L 375.325,392.68 L 373.571,392.596 L 371.904,392.343 L 370.343,391.933 L 368.9,391.384 L 367.592,390.705 L 366.431,389.927 L 365.424,389.055 L 364.579,388.117 L 363.9,387.127 L 363.389,386.108 L 363.047,385.079 L 362.873,384.06 L 362.86,383.069 L 363.003,382.127 L 363.287,381.247 L 363.708,380.448 L 364.245,379.741 L 364.889,379.144 L 365.624,378.664 L 366.431,378.316 L 366.804,379.068 L 367.317,379.751 L 367.96,380.353 L 368.716,380.856 L 369.575,381.247 L 370.517,381.513 L 371.531,381.645 L 372.592,381.632 L 373.687,381.469 L 374.791,381.149 L 375.88,380.676 L 376.941,380.041 L 377.949,379.253 L 378.884,378.316 L 379.721,377.235 L 380.445,376.013 L 381.039,374.667 L 381.476,373.211 L 381.747,371.657 L 381.836,370.023 L 381.731,368.328 L 381.423,366.589 L 380.896,364.829 L 380.151,363.069 L 379.185,361.332 L 377.992,359.643 L 376.58,358.021 L 374.948,356.495 L 373.105,355.085 L 371.064,353.815 L 368.832,352.707 L 366.431,351.777 L 363.873,351.052 L 361.18,350.548 L 358.373,350.279 L 355.48,350.26 L 352.52,350.507 L 349.532,351.023 L 346.532,351.824 L 343.56,352.905 L 340.643,354.273 L 337.809,355.928 L 335.097,357.861 L 332.532,360.072 L 330.152,362.545 L 327.98,365.269 L 326.047,368.229 L 324.38,371.404 L 323.007,374.775 L 321.951,378.316 L 321.233,382.001 L 320.876,385.804 L 320.892,389.692 L 321.292,393.631 L 322.087,397.591 L 323.288,401.536 L 324.893,405.428 L 326.905,409.235 L 329.32,412.915 L 332.124,416.435 L 335.308,419.756 L 338.855,422.844 L 342.745,425.671 L 346.959,428.191 L 351.467,430.385 L 356.235,432.219 L 361.237,433.669 L 366.431,434.712 L 371.777,435.32 L 377.241,435.488 L 382.776,435.192 L 388.335,434.427 L 393.875,433.185 L 399.343,431.461 L 404.696,429.267 L 409.887,426.6 L 414.865,423.471 L 419.584,419.895 L 423.996,415.895 L 428.06,411.487 L 431.735,406.704 L 434.976,401.573 L 437.749,396.129 L 440.019,390.412 L 441.756,384.459 L 442.933,378.316 L 443.528,372.029 L 443.523,365.644 L 442.904,359.213 L 441.664,352.788 L 439.797,346.423 L 437.307,340.168 L 434.197,334.079 L 430.487,328.205 L 426.187,322.605 L 421.324,317.328 L 415.924,312.419 L 410.017,307.932 L 403.648,303.904 L 396.855,300.384 L 389.683,297.408 L 382.187,295.008 L 374.413,293.22 L 366.431,292.064 L 358.292,291.567 L 350.057,291.74 L 341.796,292.601 L 333.572,294.149 L 325.452,296.389 L 317.505,299.312 L 309.793,302.908 L 302.387,307.163 L 295.351,312.049 L 288.745,317.543 L 282.631,323.612 L 277.064,330.215 L 272.101,337.311 L 267.791,344.847 L 264.176,352.772 L 261.303,361.036 L 259.203,369.569 L 257.901,378.316 L 257.429,387.205 L 257.799,396.172 L 259.023,405.145 L 261.103,414.053 L 264.041,422.828 L 267.82,431.391 L 272.428,439.679 L 277.841,447.617 L 284.029,455.137 L 290.951,462.176 L 298.569,468.669 L 306.831,474.557 L 315.679,479.788 L 325.052,484.304 L 334.889,488.063 L 345.113,491.028 L 355.653,493.155 L 366.431,494.425 L 377.36,494.807 L 388.364,494.291 L 399.353,492.872 L 410.241,490.537 L 420.943,487.303 L 431.369,483.177 L 441.435,478.18 L 451.056,472.341 L 460.153,465.693 L 468.648,458.279 L 476.463,450.145 L 483.529,441.344 L 489.783,431.941 L 495.163,421.999 L 499.615,411.587 L 503.096,400.781 L 505.563,389.663 L 506.985,378.316 L 507.335,366.825 L 506.6,355.273 L 504.771,343.759 L 501.851,332.365 L 497.845,321.185 L 492.775,310.311 L 486.665,299.828 L 479.551,289.825 L 471.479,280.383 L 462.492,271.584 L 452.66,263.507 L 442.044,256.216 L 430.716,249.787 L 418.763,244.272 L 406.26,239.728 L 393.308,236.203 L 379.996,233.732 L 366.431,232.352 L 352.709,232.083 L 338.936,232.936 L 325.217,234.924 L 311.665,238.039 L 298.384,242.268 L 285.48,247.599 L 273.057,253.993 L 261.219,261.421 L 250.06,269.827 L 239.68,279.161 L 230.163,289.364 L 221.595,300.36 L 214.053,312.073 L 207.605,324.424 L 202.309,337.319 L 198.225,350.667 L 195.396,364.365 L 193.849,378.316 L 193.624,392.411 L 194.724,406.541 L 197.155,420.601 L 200.917,434.476 L 205.991,448.063 L 212.349,461.248 L 219.961,473.928 L 228.777,486.001 L 238.737,497.361 L 249.781,507.92 L 261.832,517.585 L 274.805,526.271 L 288.608,533.905 L 303.145,540.415 L 318.311,545.743 L 333.991,549.831 L 350.071,552.639 Z "/>
	</g>
</svg>